 http://desibbrg.org/images/66952052392581364616.gif 
http://desibbrg.org/images/03740132942321709163.jpg 
http://desibbrg.org/images/12201561526546345201.jpg 
http://desibbrg.org/images/18562900269860627271.jpg 
http://desibbrg.org/images/95270423726208654681.jpg

Media Info - 
Video
ID : 1
Format : AVC
Format/Info : Advanced Video Codec
Format profile : High@L4.1
Format settings, CABAC : Yes
Format settings, ReFrames : 8 frames
Codec ID : V_MPEG4/ISO/AVC
Duration : 2h 41mn
Bit rate : 1 714 Kbps
Width : 1 280 pixels
Height : 544 pixels
Display aspect ratio : 2.35:1
Frame rate : 24.000 fps
Color space : YUV
Chroma subsampling : 4:2:0
Bit depth : 8 bits
Scan type : Progressive
Bits/(Pixel*Frame) : 0.103
Stream size : 1.89 GiB (86%)
Language : English
Default : No
Forced : No

Audio
ID : 2
Format : AC-3
Format/Info : Audio Coding 3
Mode extension : CM (complete main)
Codec ID : A_AC3
Duration : 2h 41mn
Bit rate mode : Constant
Bit rate : 224 Kbps
Channel(s) : 6 channels
Channel positions : Front: L C R, Side: L R, LFE
Sampling rate : 48.0 KHz
Bit depth : 16 bits
Compression mode : Lossy
Stream size : 258 MiB (12%)
Language : Hindi
Default : Yes
Forced : No

Ripper : NhaNc3

Seeding 24x7... Extreme Seeding...


Enjoy!
